<svg xmlns="http://www.w3.org/2000/svg" width="256" height="256"><path fill="#1976D2" fill-opacity=".016" fill-rule="evenodd" d="M0 128.004v128.004l128.25-.254 128.25-.254.254-127.75L257.008 0H0v128.004m.485.496c0 70.4.119 99.053.265 63.672.146-35.38.146-92.98 0-128C.604 29.153.485 58.1.485 128.5"/><path fill="#1976D2" fill-opacity=".322" fill-rule="evenodd" d="M105.922 1.552C59.423 9.972 21.407 42.713 6.559 87.127 1.869 101.157 0 112.802 0 128c0 15.198 1.869 26.843 6.559 40.873 13.04 39.006 43.834 69.157 83.27 81.531 24.16 7.581 52.182 7.581 76.342 0 39.441-12.376 70.278-42.573 83.258-81.531 1.901-5.705 3.973-13.523 4.603-17.373.631-3.85 1.557-7.781 2.058-8.736 1.065-2.032 1.253-31.441.194-30.381-.394.393-1.305-2.769-2.024-7.029-1.753-10.377-7.338-26.776-12.496-36.691-12.698-24.407-34.911-45.59-59.796-57.023-9.745-4.476-22.029-8.292-32.678-10.149-10.573-1.843-33.025-1.812-43.368.061M159 36.36c-7.916 2.155-14.334 5.969-20.843 12.386L131.815 55l-26.658.012c-19.065.008-28.081.393-31.657 1.349-21.121 5.651-36.576 25.119-38.193 48.112-.67 9.522.566 19.725 5.335 44.027 2.826 14.404 14.401 62.757 16.93 70.726.519 1.637 2.519 1.774 25.959 1.774h25.397l.286-9.75.286-9.75 9.25-.288 9.25-.287v20.109l25.71-.267 25.71-.267 7.669-26.795c4.218-14.738 7.862-26.99 8.099-27.227.238-.237 6.03-2.415 12.872-4.84l12.44-4.408.263-34.115.263-34.115H201.219l-10.61-11.072C184.774 71.839 180 66.036 180 65.034c0-1.003.938-4.86 2.084-8.572 2.339-7.57 2.02-11.789-1.199-15.881-4.297-5.462-11.922-6.933-21.885-4.221M90.434 84.311c-.284.741-.386 5.362-.225 10.268l.291 8.921h47v-20l-23.274-.268c-18.784-.217-23.374-.009-23.792 1.079m71.066 19.85c-5.95 3.272-7.294 10.553-2.911 15.762 3.601 4.28 9.297 4.345 13.488.154 7.555-7.555-1.367-20.981-10.577-15.916M.402 128c0 8.525.154 12.012.341 7.75.188-4.262.188-11.237 0-15.5-.187-4.263-.341-.775-.341 7.75"/><path fill="#1976D2" fill-opacity=".318" fill-rule="evenodd" d="M108 1.651C90.523 4.326 71.676 11.808 56 22.293 46.364 28.739 28.739 46.364 22.293 56c-29.533 44.153-29.533 99.847 0 144 6.446 9.636 24.071 27.261 33.707 33.707 44.153 29.533 99.847 29.533 144 0 9.636-6.446 27.261-24.071 33.707-33.707 10.405-15.557 18.137-34.97 20.312-51 .634-4.675 1.564-9.281 2.067-10.236 1.115-2.119 1.232-23.079.125-22.395-.433.268-1.35-3.634-2.036-8.672-2.258-16.584-9.913-35.916-20.468-51.697-6.446-9.636-24.071-27.261-33.707-33.707-27.357-18.299-59.783-25.574-92-20.642m49.5 34.751c-7.176 2.276-12.851 5.769-19.065 11.736L132.33 54l-24.915.017c-17.77.013-26.856.429-31.685 1.452-19.185 4.066-35.107 20.266-39.763 40.459-2.146 9.307-.654 28.613 3.96 51.229 3.628 17.788 12.871 56.3 16.702 69.593l1.513 5.25H109v-20h19v20.034l25.75-.267 25.75-.267 7.665-26.865c4.216-14.776 8.041-27.238 8.5-27.692.459-.455 6.46-2.816 13.335-5.248l12.5-4.422.263-34.136.263-34.137h-20.659l-10.776-11.517-10.775-11.518 2.092-6.887c2.528-8.325 2.625-12.153.422-16.795-2.484-5.235-6.563-7.288-14.33-7.212-3.575.034-8.3.634-10.5 1.331M91 93.5v9.5h46V84H91v9.5m68.19 12.798c-5.942 6.324-2.04 16.702 6.279 16.702 5.758 0 10.448-6.498 8.963-12.415-1.562-6.224-10.944-8.862-15.242-4.287M.378 128c0 6.325.163 8.912.361 5.75.198-3.163.198-8.338 0-11.5-.198-3.163-.361-.575-.361 5.75"/><path fill="#1976D2" fill-opacity=".285" fill-rule="evenodd" d="M115.265.972C58.709 7.383 14.59 47.541 2.881 103.266c-3 14.276-3 35.192 0 49.468 9.453 44.987 39.981 80.207 82.885 95.624 26.059 9.363 58.409 9.363 84.468 0 42.78-15.373 73.728-51.007 82.75-95.281 1.109-5.44 2.016-11.931 2.016-14.425 0-2.494.45-4.812 1-5.152.55-.34 1-3.318 1-6.618 0-3.745-.376-5.768-1-5.382-.612.378-1-1.187-1-4.034 0-2.558-.907-9.103-2.016-14.543-10.305-50.571-49.425-89.729-99.75-99.849C141.643.743 125.278-.163 115.265.972M161 35.098c-7.515 1.468-17.054 6.816-23.33 13.082L131.84 54h-26.21c-20.321 0-27.532.344-32.095 1.533C56.971 59.847 43.085 73.294 36.908 91c-5.53 15.851-.819 49.296 15.846 112.5l4.746 18 26.25.267 26.25.266V202h18v20h51.714l7.894-27.627 7.894-27.627 13.249-4.609L222 157.529V88h-20.62l-10.323-10.49c-11.531-11.718-11.151-10.591-7.729-22.963 2.283-8.256-.476-15.265-7.399-18.795-3.677-1.876-7.759-2.054-14.929-.654M91 93.5v9.5h46V84H91v9.5m68.455 12.955c-3.96 3.959-3.653 9.837.725 13.895 2.487 2.304 3.671 2.735 6.197 2.251C177.07 120.551 176.29 104 165.5 104c-2.479 0-4.351.76-6.045 2.455M.32 128c0 3.575.182 5.037.403 3.25.222-1.787.222-4.713 0-6.5-.221-1.787-.403-.325-.403 3.25"/></svg>